<?xml version="1.0" encoding="utf-8"?><svg xmlns="http://www.w3.org/2000/svg" xmlns:xlink="http://www.w3.org/1999/xlink" width="1536" height="749" preserveAspectRatio="xMidYMid" viewBox="0 0 1536 749" style="z-index:1;display:block;background-color:rgb(0, 0, 0);animation-play-state:paused" ><g transform="translate(768,374.5) scale(1,1) translate(-768,-374.5)" style="animation-play-state:paused" ><circle cx="0" cy="0" r="1708.8876499056337" fill="#390021" fill-opacity="0.4" transform="matrix(0.9950000047683716,0,0,0.9950000047683716,0,0)" style="animation-play-state:paused" ></circle>
<circle cx="0" cy="0" r="1553.5342271869397" fill="#48133c" fill-opacity="0.4" transform="matrix(0.9957152605056763,0,0,0.9957152605056763,0,0)" style="animation-play-state:paused" ></circle>
<circle cx="0" cy="0" r="1398.180804468246" fill="#542859" fill-opacity="0.4" transform="matrix(0.997822642326355,0,0,0.997822642326355,0,0)" style="animation-play-state:paused" ></circle>
<circle cx="0" cy="0" r="1242.8273817495517" fill="#5b3d77" fill-opacity="0.4" transform="matrix(1.000746726989746,0,0,1.000746726989746,0,0)" style="animation-play-state:paused" ></circle>
<circle cx="0" cy="0" r="1087.4739590308577" fill="#5c5494" fill-opacity="0.4" transform="matrix(1.0033881664276123,0,0,1.0033881664276123,0,0)" style="animation-play-state:paused" ></circle>
<circle cx="0" cy="0" r="932.1205363121637" fill="#576bb0" fill-opacity="0.4" transform="matrix(1.0048235654830933,0,0,1.0048235654830933,0,0)" style="animation-play-state:paused" ></circle>
<circle cx="0" cy="0" r="776.7671135934698" fill="#4b84c9" fill-opacity="0.4" transform="matrix(1.0048235654830933,0,0,1.0048235654830933,0,0)" style="animation-play-state:paused" ></circle>
<circle cx="0" cy="0" r="621.4136908747759" fill="#359cde" fill-opacity="0.4" transform="matrix(1.0033881664276123,0,0,1.0033881664276123,0,0)" style="animation-play-state:paused" ></circle>
<circle cx="0" cy="0" r="466.06026815608186" fill="#03b5ee" fill-opacity="0.4" transform="matrix(1.000746726989746,0,0,1.000746726989746,0,0)" style="animation-play-state:paused" ></circle>
<circle cx="0" cy="0" r="310.7068454373879" fill="#00cef9" fill-opacity="0.4" transform="matrix(0.997822642326355,0,0,0.997822642326355,0,0)" style="animation-play-state:paused" ></circle>
<circle cx="0" cy="0" r="155.35342271869396" fill="#00e7fe" fill-opacity="0.4" transform="matrix(0.9957152605056763,0,0,0.9957152605056763,0,0)" style="animation-play-state:paused" ></circle>
<circle cx="0" cy="0" r="0" fill="#00ffff" fill-opacity="0.4" transform="matrix(0.9950000047683716,0,0,0.9950000047683716,0,0)" style="animation-play-state:paused" ></circle></g></svg>